<svg xmlns="http://www.w3.org/2000/svg" viewBox="0 0 220 220" height="220" width="220">
  <defs>
    <linearGradient y2="100%" x2="100%" y1="0%" x1="0%" id="sunset">
      <stop stop-color="#f97316" offset="0%"></stop>
      <stop stop-color="#ec4899" offset="50%"></stop>
      <stop stop-color="#8b5cf6" offset="100%"></stop>
    </linearGradient>
    <radialGradient cy="40%" cx="50%" id="glow">
      <stop stop-color="#fef08a" offset="0%"></stop>
      <stop stop-opacity="0" stop-color="#ca8a04" offset="100%"></stop>
    </radialGradient>
  </defs>

  
  <circle opacity="0.5" fill="url(#glow)" r="80" cy="90" cx="110"></circle>

  
  <circle fill="url(#sunset)" r="70" cy="90" cx="110"></circle>

  
  <path stroke-linecap="round" stroke-width="12" stroke="#14532d" fill="none" d="M80 110 Q90 60 100 90 Q110 50 120 90 Q130 70 140 110"></path>
  <path stroke-linecap="round" stroke-width="8" stroke="#15803d" d="M85 105 L80 125 M115 105 L110 130 M135 105 L140 125"></path>

  
  <path stroke-width="8" stroke="#7c3aed" fill-opacity="0.9" fill="#ffffff" d="M110 30 C110 30 70 70 70 110 C70 150 110 190 110 190 C110 190 150 150 150 110 C150 70 110 30 110 30 Z"></path>
  
  
  <circle fill="#06b6d4" r="28" cy="100" cx="110"></circle>
  <text text-anchor="middle" fill="white" font-weight="bold" font-size="42" font-family="Arial, sans-serif" y="118" x="110">T</text>

  
  <path opacity="0.8" fill="#0ea5e9" d="M0 160 Q55 140 110 160 T220 160 L220 220 L0 220 Z"></path>
</svg>
